<svg viewBox="0 0 441 245" fill="none" xmlns="http://www.w3.org/2000/svg">
<g clip-path="url(#clip0)">
<path opacity="0.1" d="M441 157.257C441.005 163.912 440.117 170.537 438.36 176.942C436.661 183.117 434.162 189.028 430.931 194.516C430.931 214.399 417.894 231.584 398.97 239.76C391.063 243.141 382.58 244.868 374.017 244.84H83.7169C68.2009 244.84 53.8221 240.529 42.03 233.187C38.6552 231.096 35.4538 228.721 32.4583 226.087C19.3517 214.49 11.2256 198.464 11.2256 180.764C3.86969 169.102 -0.0307209 155.489 9.73004e-05 141.584C9.73004e-05 112.469 16.7265 87.4342 40.6885 76.3811C43.8704 74.9141 47.1583 73.704 50.5224 72.7616C51.7122 72.4283 52.915 72.1293 54.1305 71.8647C57.371 71.1542 60.6578 70.69 63.9644 70.4756C65.1594 70.3989 66.3608 70.3552 67.5687 70.3446H68.2317C69.5655 70.3446 70.8878 70.3923 72.2023 70.4716L72.634 69.7176C73.1634 68.8074 73.7057 67.9065 74.2608 67.0149C75.2631 65.3903 76.3142 63.7896 77.4141 62.2126C78.5654 60.5484 79.7669 58.9106 81.0184 57.2993L81.3384 56.9024C82.0477 55.9923 82.7724 55.0927 83.5126 54.2037C85.8255 51.4282 88.2669 48.736 90.8369 46.1272C118.635 18.076 162.183 0.0180664 211.14 0.0180664C249.234 0.0180664 284.056 10.952 310.728 29.0179C320.832 23.1308 332.247 20.0418 343.857 20.0524C381.534 20.0524 412.088 51.9494 412.088 91.2958C412.083 93.7854 411.954 96.273 411.703 98.7491C420.785 105.368 428.188 114.139 433.287 124.322C438.386 134.505 441.031 145.801 441 157.257Z" fill="#41729F"/>
<path opacity="0.2" d="M90.8445 46.1091V54.1856H83.5202C85.8151 51.4127 88.2566 48.7206 90.8445 46.1091Z" fill="#41729F"/>
<path opacity="0.2" d="M104.287 44.0613H94.4527V54.1856H104.287V44.0613Z" fill="#41729F"/>
<path opacity="0.2" d="M117.725 44.0613H107.891V54.1856H117.725V44.0613Z" fill="#41729F"/>
<path opacity="0.2" d="M131.167 44.0613H121.333V54.1856H131.167V44.0613Z" fill="#41729F"/>
<path opacity="0.2" d="M144.605 44.0613H134.771V54.1856H144.605V44.0613Z" fill="#41729F"/>
<path opacity="0.2" d="M158.047 44.0613H148.213V54.1856H158.047V44.0613Z" fill="#41729F"/>
<path d="M171.489 44.0613H161.655V54.1856H171.489V44.0613Z" fill="#41729F"/>
<path opacity="0.2" d="M184.927 44.0613H175.093V54.1856H184.927V44.0613Z" fill="#41729F"/>
<path opacity="0.2" d="M198.369 44.0613H188.535V54.1856H198.369V44.0613Z" fill="#41729F"/>
<path opacity="0.2" d="M211.807 44.0613H201.973V54.1856H211.807V44.0613Z" fill="#41729F"/>
<path d="M225.249 44.0613H215.415V54.1856H225.249V44.0613Z" fill="#41729F"/>
<path opacity="0.2" d="M238.691 44.0613H228.857V54.1856H238.691V44.0613Z" fill="#41729F"/>
<path opacity="0.2" d="M252.129 44.0613H242.295V54.1856H252.129V44.0613Z" fill="#41729F"/>
<path opacity="0.2" d="M265.571 44.0613H255.738V54.1856H265.571V44.0613Z" fill="#41729F"/>
<path opacity="0.2" d="M279.013 44.0613H269.18V54.1856H279.013V44.0613Z" fill="#41729F"/>
<path opacity="0.2" d="M292.452 44.0613H282.618V54.1856H292.452V44.0613Z" fill="#41729F"/>
<path opacity="0.2" d="M305.894 44.0613H296.06V54.1856H305.894V44.0613Z" fill="#41729F"/>
<path d="M319.332 44.0613H309.498V54.1856H319.332V44.0613Z" fill="#41729F"/>
<path d="M332.774 44.0613H322.94V54.1856H332.774V44.0613Z" fill="#41729F"/>
<path opacity="0.2" d="M346.216 44.0613H336.382V54.1856H346.216V44.0613Z" fill="#41729F"/>
<path opacity="0.2" d="M359.654 44.0613H349.82V54.1856H359.654V44.0613Z" fill="#41729F"/>
<path d="M373.096 44.0613H363.262V54.1856H373.096V44.0613Z" fill="#41729F"/>
<path d="M386.534 44.0613H376.7V54.1856H386.534V44.0613Z" fill="#41729F"/>
<path d="M77.4063 62.2065V67.0088H74.253C75.2553 65.3736 76.3064 63.7729 77.4063 62.2065Z" fill="#41729F"/>
<path opacity="0.2" d="M90.8445 56.8843H81.0107V67.0086H90.8445V56.8843Z" fill="#41729F"/>
<path d="M104.287 56.8843H94.4527V67.0086H104.287V56.8843Z" fill="#41729F"/>
<path opacity="0.2" d="M117.725 56.8843H107.891V67.0086H117.725V56.8843Z" fill="#41729F"/>
<path opacity="0.7" d="M131.167 56.8843H121.333V67.0086H131.167V56.8843Z" fill="#41729F"/>
<path opacity="0.2" d="M144.605 56.8843H134.771V67.0086H144.605V56.8843Z" fill="#41729F"/>
<path opacity="0.4" d="M158.047 56.8843H148.213V67.0086H158.047V56.8843Z" fill="#41729F"/>
<path d="M171.489 56.8843H161.655V67.0086H171.489V56.8843Z" fill="#41729F"/>
<path opacity="0.4" d="M184.927 56.8843H175.093V67.0086H184.927V56.8843Z" fill="#41729F"/>
<path opacity="0.2" d="M198.369 56.8843H188.535V67.0086H198.369V56.8843Z" fill="#41729F"/>
<path opacity="0.4" d="M211.807 56.8843H201.973V67.0086H211.807V56.8843Z" fill="#41729F"/>
<path d="M225.249 56.8843H215.415V67.0086H225.249V56.8843Z" fill="#41729F"/>
<path opacity="0.4" d="M238.691 56.8843H228.857V67.0086H238.691V56.8843Z" fill="#41729F"/>
<path opacity="0.4" d="M252.129 56.8843H242.295V67.0086H252.129V56.8843Z" fill="#41729F"/>
<path opacity="0.2" d="M265.571 56.8843H255.738V67.0086H265.571V56.8843Z" fill="#41729F"/>
<path opacity="0.4" d="M279.013 56.8843H269.18V67.0086H279.013V56.8843Z" fill="#41729F"/>
<path opacity="0.4" d="M292.452 56.8843H282.618V67.0086H292.452V56.8843Z" fill="#41729F"/>
<path opacity="0.2" d="M305.894 56.8843H296.06V67.0086H305.894V56.8843Z" fill="#41729F"/>
<path opacity="0.2" d="M319.332 56.8843H309.498V67.0086H319.332V56.8843Z" fill="#41729F"/>
<path opacity="0.4" d="M332.774 56.8843H322.94V67.0086H332.774V56.8843Z" fill="#41729F"/>
<path opacity="0.2" d="M346.216 56.8843H336.382V67.0086H346.216V56.8843Z" fill="#41729F"/>
<path d="M359.654 56.8843H349.82V67.0086H359.654V56.8843Z" fill="#41729F"/>
<path d="M373.096 56.8843H363.262V67.0086H373.096V56.8843Z" fill="#41729F"/>
<path d="M386.534 56.8843H376.7V67.0086H386.534V56.8843Z" fill="#41729F"/>
<path opacity="0.2" d="M50.5222 72.7595V79.8358H40.6884V76.379C43.8703 74.912 47.1581 73.7019 50.5222 72.7595Z" fill="#41729F"/>
<path opacity="0.2" d="M63.9642 70.4734V79.8357H54.1304V71.8625L63.9642 70.4734Z" fill="#41729F"/>
<path d="M77.4024 69.7114H67.5686V79.8358H77.4024V69.7114Z" fill="#41729F"/>
<path opacity="0.7" d="M90.8445 69.7114H81.0107V79.8358H90.8445V69.7114Z" fill="#41729F"/>
<path d="M104.287 69.7114H94.4527V79.8358H104.287V69.7114Z" fill="#41729F"/>
<path opacity="0.7" d="M117.725 69.7114H107.891V79.8358H117.725V69.7114Z" fill="#41729F"/>
<path opacity="0.7" d="M131.167 69.7114H121.333V79.8358H131.167V69.7114Z" fill="#41729F"/>
<path opacity="0.2" d="M144.605 69.7114H134.771V79.8358H144.605V69.7114Z" fill="#41729F"/>
<path opacity="0.4" d="M158.047 69.7114H148.213V79.8358H158.047V69.7114Z" fill="#41729F"/>
<path opacity="0.4" d="M171.489 69.7114H161.655V79.8358H171.489V69.7114Z" fill="#41729F"/>
<path d="M184.927 69.7114H175.093V79.8358H184.927V69.7114Z" fill="#41729F"/>
<path opacity="0.2" d="M198.369 69.7114H188.535V79.8358H198.369V69.7114Z" fill="#41729F"/>
<path opacity="0.4" d="M211.807 69.7114H201.973V79.8358H211.807V69.7114Z" fill="#41729F"/>
<path d="M225.249 69.7114H215.415V79.8358H225.249V69.7114Z" fill="#41729F"/>
<path opacity="0.2" d="M238.691 69.7114H228.857V79.8358H238.691V69.7114Z" fill="#41729F"/>
<path opacity="0.4" d="M252.129 69.7114H242.295V79.8358H252.129V69.7114Z" fill="#41729F"/>
<path opacity="0.2" d="M265.571 69.7114H255.738V79.8358H265.571V69.7114Z" fill="#41729F"/>
<path d="M279.013 69.7114H269.18V79.8358H279.013V69.7114Z" fill="#41729F"/>
<path opacity="0.2" d="M292.452 69.7114H282.618V79.8358H292.452V69.7114Z" fill="#41729F"/>
<path opacity="0.7" d="M305.894 69.7114H296.06V79.8358H305.894V69.7114Z" fill="#41729F"/>
<path opacity="0.7" d="M319.332 69.7114H309.498V79.8358H319.332V69.7114Z" fill="#41729F"/>
<path opacity="0.4" d="M332.774 69.7114H322.94V79.8358H332.774V69.7114Z" fill="#41729F"/>
<path opacity="0.2" d="M346.216 69.7114H336.382V79.8358H346.216V69.7114Z" fill="#41729F"/>
<path d="M359.654 69.7114H349.82V79.8358H359.654V69.7114Z" fill="#41729F"/>
<path d="M373.096 69.7114H363.262V79.8358H373.096V69.7114Z" fill="#41729F"/>
<path d="M386.534 69.7114H376.7V79.8358H386.534V69.7114Z" fill="#41729F"/>
<path opacity="0.2" d="M50.5222 82.5344H40.6884V92.6588H50.5222V82.5344Z" fill="#41729F"/>
<path opacity="0.2" d="M63.9642 82.5344H54.1304V92.6588H63.9642V82.5344Z" fill="#41729F"/>
<path opacity="0.2" d="M77.4024 82.5344H67.5686V92.6588H77.4024V82.5344Z" fill="#41729F"/>
<path opacity="0.2" d="M90.8445 82.5344H81.0107V92.6588H90.8445V82.5344Z" fill="#41729F"/>
<path d="M104.287 82.5344H94.4527V92.6588H104.287V82.5344Z" fill="#41729F"/>
<path opacity="0.7" d="M117.725 82.5344H107.891V92.6588H117.725V82.5344Z" fill="#41729F"/>
<path opacity="0.7" d="M131.167 82.5344H121.333V92.6588H131.167V82.5344Z" fill="#41729F"/>
<path opacity="0.2" d="M144.605 82.5344H134.771V92.6588H144.605V82.5344Z" fill="#41729F"/>
<path opacity="0.2" d="M158.047 82.5344H148.213V92.6588H158.047V82.5344Z" fill="#41729F"/>
<path opacity="0.4" d="M171.489 82.5344H161.655V92.6588H171.489V82.5344Z" fill="#41729F"/>
<path opacity="0.4" d="M184.927 82.5344H175.093V92.6588H184.927V82.5344Z" fill="#41729F"/>
<path d="M198.369 82.5344H188.535V92.6588H198.369V82.5344Z" fill="#41729F"/>
<path opacity="0.2" d="M211.807 82.5344H201.973V92.6588H211.807V82.5344Z" fill="#41729F"/>
<path opacity="0.4" d="M225.249 82.5344H215.415V92.6588H225.249V82.5344Z" fill="#41729F"/>
<path opacity="0.4" d="M238.691 82.5344H228.857V92.6588H238.691V82.5344Z" fill="#41729F"/>
<path opacity="0.4" d="M252.129 82.5344H242.295V92.6588H252.129V82.5344Z" fill="#41729F"/>
<path opacity="0.4" d="M265.571 82.5344H255.738V92.6588H265.571V82.5344Z" fill="#41729F"/>
<path opacity="0.2" d="M279.013 82.5344H269.18V92.6588H279.013V82.5344Z" fill="#41729F"/>
<path opacity="0.2" d="M292.452 82.5344H282.618V92.6588H292.452V82.5344Z" fill="#41729F"/>
<path opacity="0.2" d="M305.894 82.5344H296.06V92.6588H305.894V82.5344Z" fill="#41729F"/>
<path opacity="0.2" d="M319.332 82.5344H309.498V92.6588H319.332V82.5344Z" fill="#41729F"/>
<path opacity="0.7" d="M332.774 82.5344H322.94V92.6588H332.774V82.5344Z" fill="#41729F"/>
<path opacity="0.7" d="M346.216 82.5344H336.382V92.6588H346.216V82.5344Z" fill="#41729F"/>
<path opacity="0.4" d="M359.654 82.5344H349.82V92.6588H359.654V82.5344Z" fill="#41729F"/>
<path opacity="0.2" d="M373.096 82.5344H363.262V92.6588H373.096V82.5344Z" fill="#41729F"/>
<path d="M386.534 82.5344H376.7V92.6588H386.534V82.5344Z" fill="#41729F"/>
<path opacity="0.2" d="M50.5222 95.3616H40.6884V105.486H50.5222V95.3616Z" fill="#41729F"/>
<path opacity="0.2" d="M63.9642 95.3616H54.1304V105.486H63.9642V95.3616Z" fill="#41729F"/>
<path opacity="0.4" d="M77.4024 95.3616H67.5686V105.486H77.4024V95.3616Z" fill="#41729F"/>
<path opacity="0.2" d="M90.8445 95.3616H81.0107V105.486H90.8445V95.3616Z" fill="#41729F"/>
<path opacity="0.2" d="M104.287 95.3616H94.4527V105.486H104.287V95.3616Z" fill="#41729F"/>
<path opacity="0.7" d="M117.725 95.3616H107.891V105.486H117.725V95.3616Z" fill="#41729F"/>
<path opacity="0.7" d="M131.167 95.3616H121.333V105.486H131.167V95.3616Z" fill="#41729F"/>
<path opacity="0.2" d="M144.605 95.3616H134.771V105.486H144.605V95.3616Z" fill="#41729F"/>
<path opacity="0.2" d="M158.047 95.3616H148.213V105.486H158.047V95.3616Z" fill="#41729F"/>
<path opacity="0.4" d="M171.489 95.3616H161.655V105.486H171.489V95.3616Z" fill="#41729F"/>
<path d="M184.927 95.3616H175.093V105.486H184.927V95.3616Z" fill="#41729F"/>
<path opacity="0.2" d="M198.369 95.3616H188.535V105.486H198.369V95.3616Z" fill="#41729F"/>
<path d="M211.807 95.3616H201.973V105.486H211.807V95.3616Z" fill="#41729F"/>
<path d="M225.249 95.3616H215.415V105.486H225.249V95.3616Z" fill="#41729F"/>
<path d="M238.691 95.3616H228.857V105.486H238.691V95.3616Z" fill="#41729F"/>
<path opacity="0.2" d="M252.129 95.3616H242.295V105.486H252.129V95.3616Z" fill="#41729F"/>
<path d="M265.571 95.3616H255.738V105.486H265.571V95.3616Z" fill="#41729F"/>
<path opacity="0.2" d="M279.013 95.3616H269.18V105.486H279.013V95.3616Z" fill="#41729F"/>
<path opacity="0.2" d="M292.452 95.3616H282.618V105.486H292.452V95.3616Z" fill="#41729F"/>
<path opacity="0.2" d="M305.894 95.3616H296.06V105.486H305.894V95.3616Z" fill="#41729F"/>
<path opacity="0.2" d="M319.332 95.3616H309.498V105.486H319.332V95.3616Z" fill="#41729F"/>
<path opacity="0.2" d="M332.774 95.3616H322.94V105.486H332.774V95.3616Z" fill="#41729F"/>
<path opacity="0.7" d="M346.216 95.3616H336.382V105.486H346.216V95.3616Z" fill="#41729F"/>
<path opacity="0.2" d="M359.654 95.3616H349.82V105.486H359.654V95.3616Z" fill="#41729F"/>
<path opacity="0.2" d="M373.096 95.3616H363.262V105.486H373.096V95.3616Z" fill="#41729F"/>
<path d="M386.534 95.3616H376.7V105.486H386.534V95.3616Z" fill="#41729F"/>
<path opacity="0.2" d="M50.5222 108.185H40.6884V118.309H50.5222V108.185Z" fill="#41729F"/>
<path opacity="0.2" d="M63.9642 108.185H54.1304V118.309H63.9642V108.185Z" fill="#41729F"/>
<path opacity="0.2" d="M77.4024 108.185H67.5686V118.309H77.4024V108.185Z" fill="#41729F"/>
<path opacity="0.4" d="M90.8445 108.185H81.0107V118.309H90.8445V108.185Z" fill="#41729F"/>
<path opacity="0.2" d="M104.287 108.185H94.4527V118.309H104.287V108.185Z" fill="#41729F"/>
<path opacity="0.2" d="M117.725 108.185H107.891V118.309H117.725V108.185Z" fill="#41729F"/>
<path opacity="0.7" d="M131.167 108.185H121.333V118.309H131.167V108.185Z" fill="#41729F"/>
<path opacity="0.2" d="M144.605 108.185H134.771V118.309H144.605V108.185Z" fill="#41729F"/>
<path opacity="0.2" d="M158.047 108.185H148.213V118.309H158.047V108.185Z" fill="#41729F"/>
<path opacity="0.2" d="M171.489 108.185H161.655V118.309H171.489V108.185Z" fill="#41729F"/>
<path d="M184.927 108.185H175.093V118.309H184.927V108.185Z" fill="#41729F"/>
<path opacity="0.2" d="M198.369 108.185H188.535V118.309H198.369V108.185Z" fill="#41729F"/>
<path d="M211.807 108.185H201.973V118.309H211.807V108.185Z" fill="#41729F"/>
<path d="M225.249 108.185H215.415V118.309H225.249V108.185Z" fill="#41729F"/>
<path opacity="0.2" d="M238.691 108.185H228.857V118.309H238.691V108.185Z" fill="#41729F"/>
<path opacity="0.2" d="M252.129 108.185H242.295V118.309H252.129V108.185Z" fill="#41729F"/>
<path opacity="0.2" d="M265.571 108.185H255.738V118.309H265.571V108.185Z" fill="#41729F"/>
<path opacity="0.2" d="M279.013 108.185H269.18V118.309H279.013V108.185Z" fill="#41729F"/>
<path opacity="0.2" d="M292.452 108.185H282.618V118.309H292.452V108.185Z" fill="#41729F"/>
<path opacity="0.2" d="M305.894 108.185H296.06V118.309H305.894V108.185Z" fill="#41729F"/>
<path opacity="0.2" d="M319.332 108.185H309.498V118.309H319.332V108.185Z" fill="#41729F"/>
<path opacity="0.2" d="M332.774 108.185H322.94V118.309H332.774V108.185Z" fill="#41729F"/>
<path opacity="0.2" d="M346.216 108.185H336.382V118.309H346.216V108.185Z" fill="#41729F"/>
<path opacity="0.2" d="M359.654 108.185H349.82V118.309H359.654V108.185Z" fill="#41729F"/>
<path opacity="0.4" d="M373.096 108.185H363.262V118.309H373.096V108.185Z" fill="#41729F"/>
<path d="M386.534 108.185H376.7V118.309H386.534V108.185Z" fill="#41729F"/>
<path opacity="0.7" d="M50.5222 121.012H40.6884V131.136H50.5222V121.012Z" fill="#41729F"/>
<path opacity="0.7" d="M63.9642 121.012H54.1304V131.136H63.9642V121.012Z" fill="#41729F"/>
<path opacity="0.7" d="M77.4024 121.012H67.5686V131.136H77.4024V121.012Z" fill="#41729F"/>
<path opacity="0.7" d="M90.8445 121.012H81.0107V131.136H90.8445V121.012Z" fill="#41729F"/>
<path opacity="0.7" d="M104.287 121.012H94.4527V131.136H104.287V121.012Z" fill="#41729F"/>
<path opacity="0.2" d="M117.725 121.012H107.891V131.136H117.725V121.012Z" fill="#41729F"/>
<path opacity="0.2" d="M131.167 121.012H121.333V131.136H131.167V121.012Z" fill="#41729F"/>
<path opacity="0.2" d="M144.605 121.012H134.771V131.136H144.605V121.012Z" fill="#41729F"/>
<path opacity="0.2" d="M158.047 121.012H148.213V131.136H158.047V121.012Z" fill="#41729F"/>
<path opacity="0.2" d="M171.489 121.012H161.655V131.136H171.489V121.012Z" fill="#41729F"/>
<path opacity="0.2" d="M184.927 121.012H175.093V131.136H184.927V121.012Z" fill="#41729F"/>
<path d="M198.369 121.012H188.535V131.136H198.369V121.012Z" fill="#41729F"/>
<path opacity="0.2" d="M211.807 121.012H201.973V131.136H211.807V121.012Z" fill="#41729F"/>
<path opacity="0.2" d="M225.249 121.012H215.415V131.136H225.249V121.012Z" fill="#41729F"/>
<path opacity="0.2" d="M238.691 121.012H228.857V131.136H238.691V121.012Z" fill="#41729F"/>
<path d="M252.129 121.012H242.295V131.136H252.129V121.012Z" fill="#41729F"/>
<path opacity="0.2" d="M265.571 121.012H255.738V131.136H265.571V121.012Z" fill="#41729F"/>
<path opacity="0.2" d="M279.013 121.012H269.18V131.136H279.013V121.012Z" fill="#41729F"/>
<path opacity="0.2" d="M292.452 121.012H282.618V131.136H292.452V121.012Z" fill="#41729F"/>
<path opacity="0.2" d="M305.894 121.012H296.06V131.136H305.894V121.012Z" fill="#41729F"/>
<path opacity="0.2" d="M319.332 121.012H309.498V131.136H319.332V121.012Z" fill="#41729F"/>
<path opacity="0.2" d="M332.774 121.012H322.94V131.136H332.774V121.012Z" fill="#41729F"/>
<path opacity="0.2" d="M346.216 121.012H336.382V131.136H346.216V121.012Z" fill="#41729F"/>
<path opacity="0.2" d="M359.654 121.012H349.82V131.136H359.654V121.012Z" fill="#41729F"/>
<path opacity="0.2" d="M373.096 121.012H363.262V131.136H373.096V121.012Z" fill="#41729F"/>
<path d="M386.534 121.012H376.7V131.136H386.534V121.012Z" fill="#41729F"/>
<path d="M283.15 158.259C290.574 158.259 296.592 152.063 296.592 144.419C296.592 136.776 290.574 130.58 283.15 130.58C275.726 130.58 269.708 136.776 269.708 144.419C269.708 152.063 275.726 158.259 283.15 158.259Z" fill="#767D9F"/>
<path d="M282.452 126.814C283.793 132.841 284.932 138.914 285.867 145.031C286.149 146.848 286.399 148.765 285.759 150.484C285.224 151.917 284.133 153.036 283.277 154.29C282.421 155.544 281.774 157.151 282.294 158.588C282.814 160.025 284.333 160.811 285.783 161.215C289.93 162.366 294.352 161.529 298.481 160.283C300.35 159.787 302.142 159.023 303.804 158.013C305.554 156.87 306.988 155.282 308.307 153.647C314.324 146.134 318.264 137.117 321.972 128.156C319.589 128.379 317.189 128.015 314.97 127.095C312.75 126.174 310.776 124.723 309.209 122.861C307.69 121.024 306.576 118.464 307.432 116.218C304.922 117.634 301.942 117.73 299.24 118.698C297.564 119.357 295.951 120.174 294.421 121.139C292.576 122.237 290.741 123.356 288.917 124.496C286.831 125.79 284.877 126.941 282.452 126.814Z" fill="#FFB8B8"/>
<path d="M310.566 137.204C308.21 141.923 305.146 146.459 300.771 149.269C296.395 152.079 290.505 152.841 286.122 150.063C283.963 148.706 282.329 146.642 280.444 144.904C278.559 143.165 276.203 141.677 273.671 141.903C270.88 142.153 268.694 144.396 266.824 146.543C263.987 149.805 261.246 153.206 259.238 157.068C255.383 164.49 254.469 173.165 254.639 181.579C254.809 189.993 255.992 198.363 256.019 206.777C256.058 217.127 254.354 227.395 252.631 237.59C268.474 235.582 284.337 239.972 300.215 241.634C310.377 242.71 320.616 242.686 330.831 242.658C332.627 242.658 334.539 242.611 336.035 241.587C336.949 240.9 337.689 239.996 338.19 238.952C339.601 236.273 340.168 233.217 340.561 230.197C341.559 222.569 341.59 214.845 341.617 207.146C341.686 188.493 341.752 169.772 339.451 151.266C338.884 146.713 338.159 142.137 336.463 137.879C334.767 133.62 331.999 129.703 328.129 127.421C325.642 125.953 319.879 123.397 316.95 124.877C313.661 126.528 312.142 134.045 310.566 137.204Z" fill="#767D9F"/>
<path d="M311.738 189.878C311.14 178.368 308.708 166.085 313.885 155.869C315.157 153.361 310.593 150.23 312.004 147.801C313.725 144.84 315.031 141.642 315.882 138.304C316.174 137.157 316.41 135.942 316.132 134.791C315.619 132.692 313.603 131.442 311.892 130.164C310.003 128.751 309.031 124.445 308.422 122.115C307.813 119.785 313.268 122.591 315.461 121.762C318.507 120.615 322.377 121.337 325.415 122.5C327.111 123.143 328.953 123.199 330.761 123.246C334.273 123.341 337.797 123.433 341.281 122.988C342.847 122.786 344.415 122.48 345.988 122.571C350.001 122.806 353.49 125.631 355.864 128.973C358.239 132.315 359.75 136.208 361.697 139.828C363.32 142.844 365.255 145.693 366.639 148.833C367.865 151.611 368.64 154.595 369.407 157.564L371.384 165.18C371.73 166.27 371.894 167.412 371.87 168.558C371.77 169.776 371.245 170.911 370.714 171.995C368.702 176.01 366.29 179.8 363.516 183.302C359.357 188.552 354.307 193.287 351.836 199.573C350.872 202.022 350.337 204.626 349.847 207.221C347.873 217.602 346.47 228.09 345.645 238.634C341.141 236.488 336.419 234.863 331.567 233.788C329.148 233.255 326.703 232.858 324.243 232.598C322.088 232.367 319.309 232.804 317.258 232.201C313.827 231.197 313.449 225.224 312.929 222.096C312.096 217.115 311.93 212.047 311.899 207.015C311.861 201.292 312.034 195.581 311.738 189.878Z" fill="#4C4981"/>
<path d="M236.394 168.355C238.017 177.88 239.805 187.433 243.332 196.383C243.244 196.47 243.155 196.549 243.066 196.629C242.754 196.903 242.43 197.161 242.091 197.422C241.301 197.994 240.434 198.478 239.778 199.224C239.53 199.51 239.334 199.839 239.2 200.197C239.079 200.476 239.016 200.778 239.016 201.084C239.016 201.389 239.079 201.692 239.2 201.971C237.361 202.808 235.226 202.55 233.163 202.471C231.386 202.403 229.663 202.471 228.237 203.475C226.255 204.88 225.658 207.579 225.338 210.031C225.22 210.926 225.118 211.821 225.033 212.718C224.951 213.552 224.884 214.388 224.833 215.226C224.658 218.001 224.634 220.783 224.76 223.561C224.78 224.069 224.807 224.577 224.841 225.085C218.542 224.93 212.802 221.549 207.37 218.262C206.129 217.512 204.849 216.723 204.043 215.484C203.301 214.268 202.987 212.827 203.153 211.4C203.153 211.198 203.188 211.004 203.215 210.797C203.387 209.619 203.683 208.464 204.097 207.352C205.797 202.615 208.302 198.227 211.495 194.394C212.875 192.735 214.428 191.112 215.072 189.028C215.354 188.12 215.458 187.155 215.743 186.25C217.023 182.329 221.641 180.476 223.221 176.67C223.607 175.761 223.784 174.765 224.262 173.892C224.693 173.166 225.248 172.527 225.901 172.006C226.182 171.764 226.475 171.53 226.764 171.296C229.473 169.111 232.083 166.802 234.593 164.371C235.061 163.918 235.524 163.46 235.981 162.997C235.92 164.794 236.058 166.591 236.394 168.355Z" fill="#4C4981"/>
<path d="M275.239 140.185C274.684 140.788 274.083 141.356 273.493 141.919L273.335 142.066L272.711 142.661C271.577 143.669 270.596 144.844 269.8 146.15L269.735 146.261C267.769 149.885 268.497 154.346 269.045 158.461C269.724 163.59 270.029 168.764 269.958 173.939C269.858 181.083 269.041 188.179 269.025 195.315C269.025 196.934 269.06 198.55 269.129 200.169C269.241 202.8 269.434 205.427 269.665 208.055C269.916 210.936 270.217 213.814 270.498 216.691C270.722 218.917 270.934 221.14 271.111 223.362C271.2 224.513 271.284 225.66 271.354 226.811C271.435 228.161 271.5 229.514 271.539 230.863C271.566 231.721 271.581 232.574 271.581 233.431C271.581 233.919 271.581 234.403 271.581 234.888C271.581 235.816 271.557 236.742 271.508 237.666C271.457 238.854 271.378 240.044 271.273 241.238C271.153 242.535 270.941 243.952 270.055 244.865C270.001 244.921 269.943 244.972 269.885 245.024L268.636 244.865C260.026 243.804 251.334 243.644 242.693 244.389C242.882 243.047 243.055 241.71 243.225 240.365C243.302 239.73 243.379 239.091 243.452 238.452C243.537 237.721 243.618 236.991 243.695 236.261C243.784 235.467 243.865 234.673 243.942 233.88C244.142 231.834 244.318 229.788 244.47 227.74C244.693 224.753 244.863 221.76 244.979 218.763C245.035 217.331 245.079 215.898 245.11 214.464C245.153 212.686 245.174 210.907 245.171 209.126C245.171 207.396 245.157 205.663 245.129 203.927C245.129 203.356 245.106 202.784 245.06 202.217C245.026 201.706 244.958 201.198 244.855 200.697C244.569 199.541 244.182 198.415 243.699 197.331C243.614 197.125 243.533 196.934 243.452 196.716C243.406 196.609 243.363 196.498 243.321 196.391C245.541 194.355 247.122 191.628 248.641 188.945C251.104 184.623 253.625 180.111 254.038 175.118C254.45 170.125 252.041 164.517 247.407 162.993C246.147 162.597 244.813 162.485 243.514 162.251C242.288 162.029 239.732 161.525 238.313 160.62C237.543 161.435 236.772 162.235 236.001 163.021C236.047 161.822 236.332 160.646 236.837 159.564L237.384 159.592C237.34 159.465 237.319 159.33 237.323 159.195C237.323 158.771 237.608 158.29 238.217 157.759C240.033 156.171 242.889 155.818 244.034 153.671C244.512 152.778 244.593 151.714 244.979 150.778C246.085 148.107 249.261 147.122 251.173 144.987C253.085 142.852 253.563 139.828 255.109 137.447C256.264 135.708 257.866 134.333 259.735 133.478C259.889 133.402 260.047 133.327 260.205 133.259C263.405 131.851 267.206 131.529 270.521 131.537C271.809 131.537 275.147 131.577 276.781 132.247C277.047 132.345 277.289 132.498 277.495 132.696C279.237 134.649 276.527 138.772 275.239 140.185Z" fill="#4C4981"/>
<path d="M236.968 159.286C239.946 158.363 243.072 158.059 246.165 158.391C249.259 158.723 252.257 159.684 254.986 161.219C257.761 162.807 260.252 165.021 261.778 167.879C264.072 172.165 263.972 177.332 263.81 182.226C263.729 184.675 263.625 187.211 262.576 189.409C261.362 191.953 259.072 193.7 256.736 195.128C255.273 196.09 253.669 196.804 251.987 197.244C249.396 197.823 246.706 197.331 244.096 196.847C241.259 196.307 238.213 195.656 236.243 193.481C235.087 192.219 234.455 190.58 233.83 188.977C232.933 186.662 232.034 184.349 231.132 182.039C229.571 178.027 229.042 174.689 231.105 170.78C232.042 168.998 233.186 167.331 234.112 165.537C234.574 164.624 236.232 159.521 236.968 159.286Z" fill="#4C4981"/>
<path d="M398.982 227.895V239.761C391.074 243.143 382.592 244.87 374.029 244.841H270.066C270.012 244.897 269.954 244.948 269.897 245L268.648 244.841H83.7167C68.2008 244.841 53.822 240.531 42.0299 233.189V215.072L130.97 204.503H131.039L182.834 209.019L196.237 210.21L203.199 210.817L217.609 212.075L225.022 212.722L235.815 213.667L237.334 213.798L245.113 214.476L255.668 215.369L270.51 216.663L295.25 218.826L312.655 220.346L341.235 222.842L346.671 223.315L347.257 223.366L347.766 223.41L354.943 224.037L362.823 224.728L363.736 224.807L398.982 227.895Z" fill="#504F60"/>
<path d="M294.514 227.458L183.054 207.872L178.732 230.371L229.825 236.669L245.557 238.697L288.832 229.923L294.514 227.458Z" fill="#9C9CA1"/>
<path d="M236.818 237.57L292.66 226.763C292.939 226.708 293.227 226.718 293.502 226.791C293.778 226.864 294.034 226.998 294.253 227.185C294.472 227.372 294.648 227.607 294.768 227.872C294.889 228.138 294.951 228.427 294.949 228.72C294.951 229.185 294.794 229.635 294.505 229.992C294.217 230.35 293.816 230.592 293.373 230.677L238.838 241.19L236.818 237.57Z" fill="#9C9CA1"/>
<path d="M261.042 203.586C262.78 203.419 264.542 203.137 266.107 202.344C268.035 201.355 269.534 199.653 271.319 198.399C275.243 195.621 280.494 195.248 284.992 196.843C289.491 198.438 293.246 201.855 295.875 205.935C297.621 208.654 298.932 212.123 297.698 215.123C297.275 216.04 296.741 216.899 296.11 217.679L292.895 222.005C292.284 222.914 291.549 223.728 290.713 224.422C289.51 225.323 288.015 225.692 286.542 225.914C282.629 226.502 278.647 226.168 274.704 226.438C267.931 226.902 261.316 229.149 254.527 229.073C250.626 229.03 246.775 228.22 242.962 227.41L226.09 223.839C223.152 223.219 219.833 222.315 218.449 219.572C217.829 218.338 217.713 216.909 217.64 215.52C217.439 211.694 217.64 207.44 220.215 204.681C222.636 202.094 226.464 201.276 229.355 199.363C232.893 197.018 234.062 197.776 237.793 199.538C245.073 202.932 253.083 204.327 261.042 203.586Z" fill="#FFB8B8"/>
<path opacity="0.05" d="M261.042 203.586C262.78 203.419 264.542 203.137 266.107 202.344C268.035 201.355 269.534 199.653 271.319 198.399C275.243 195.621 280.494 195.248 284.992 196.843C289.491 198.438 293.246 201.855 295.875 205.935C297.621 208.654 298.932 212.123 297.698 215.123C297.275 216.04 296.741 216.899 296.11 217.679L292.895 222.005C292.284 222.914 291.549 223.728 290.713 224.422C289.51 225.323 288.015 225.692 286.542 225.914C282.629 226.502 278.647 226.168 274.704 226.438C267.931 226.902 261.316 229.149 254.527 229.073C250.626 229.03 246.775 228.22 242.962 227.41L226.09 223.839C223.152 223.219 219.833 222.315 218.449 219.572C217.829 218.338 217.713 216.909 217.64 215.52C217.439 211.694 217.64 207.44 220.215 204.681C222.636 202.094 226.464 201.276 229.355 199.363C232.893 197.018 234.062 197.776 237.793 199.538C245.073 202.932 253.083 204.327 261.042 203.586Z" fill="black"/>
<path d="M328.799 198.145C324.066 200.03 319.305 201.923 314.347 203.046C306.036 204.931 297.34 204.634 289.094 206.789C284.738 207.932 280.409 209.773 275.933 209.4C273.933 209.233 272.001 208.606 270.055 208.13C259.118 205.352 246.686 206.253 237.805 213.397C234.767 215.837 232.281 218.881 230.025 222.128C229.543 222.829 229.217 223.631 229.07 224.477C228.924 225.323 228.961 226.192 229.179 227.022C229.396 227.852 229.789 228.622 230.329 229.277C230.87 229.932 231.544 230.456 232.304 230.812C235.758 232.447 239.458 233.463 243.244 233.816C248.305 234.276 253.39 233.538 258.424 232.8C265.895 231.708 273.37 230.613 280.821 229.387C283.497 228.946 286.172 228.49 288.863 228.141C308.226 225.62 327.94 228.684 347.353 226.581C349.315 226.367 351.312 226.089 353.097 225.227C357.615 223.045 359.851 217.29 358.918 212.234C357.985 207.178 354.384 202.975 350.052 200.395C346.42 198.224 342.504 197.347 338.46 196.426C334.705 195.525 332.415 196.716 328.799 198.145Z" fill="#FFB8B8"/>
<path opacity="0.1" d="M370.328 167.919C372.464 170.8 372.919 174.665 372.687 178.273C372.456 181.881 371.623 185.449 371.5 189.072C371.33 194.041 372.495 198.994 372.298 203.947C372.159 207.412 371.361 210.809 370.417 214.135C369.303 218.06 367.691 222.279 364.172 224.164C359.5 226.668 349.701 225.259 344.786 227.22C345.233 224.35 349.519 220.195 349.967 217.326C350.275 215.341 350.587 213.301 350.256 211.313C349.832 208.777 348.386 206.527 346.671 204.653C343.941 201.673 340.379 199.431 336.467 198.7C332.554 197.97 322.975 198.569 319.844 201.113C319.459 198.486 326.629 195.954 329.15 195.386C330.407 195.097 331.849 195.259 332.855 194.438C334.782 192.882 333.383 189.783 333.475 187.294C333.549 185.31 334.674 183.492 334.902 181.508C335.287 178.333 333.275 175.098 334.065 171.983C334.358 170.832 335.01 169.82 335.461 168.724C336.833 165.371 336.232 161.545 335.499 157.981C335.044 155.742 334.601 153.218 335.811 151.309C336.933 149.527 340.117 155.873 342.157 155.58C348.891 154.607 354.986 149.468 360.425 153.675C363.197 155.818 363.559 158.04 364.665 161.1C365.741 164.013 368.528 165.506 370.328 167.919Z" fill="black"/>
<path d="M371.485 167.919C373.62 170.8 374.075 174.665 373.844 178.273C373.613 181.881 372.78 185.449 372.657 189.072C372.487 194.041 373.651 198.994 373.455 203.947C373.316 207.412 372.518 210.809 371.573 214.135C370.459 218.06 368.848 222.279 365.328 224.164C360.656 226.668 350.857 225.259 345.942 227.22C346.389 224.351 350.676 220.195 351.123 217.326C351.432 215.341 351.744 213.301 351.412 211.313C350.988 208.777 349.543 206.527 347.827 204.654C345.098 201.673 341.536 199.431 337.623 198.7C333.711 197.97 324.131 198.569 321.001 201.113C320.615 198.486 327.786 195.954 330.307 195.386C331.563 195.097 333.005 195.259 334.011 194.438C335.939 192.882 334.539 189.783 334.632 187.294C334.705 185.31 335.831 183.492 336.058 181.508C336.444 178.333 334.431 175.098 335.222 171.983C335.515 170.832 336.166 169.82 336.617 168.724C337.989 165.371 337.388 161.545 336.656 157.981C336.201 155.742 335.758 153.218 336.968 151.309C338.09 149.527 340.283 148.853 342.322 148.555C349.15 147.604 356.068 149.442 361.597 153.675C364.369 155.818 364.731 158.04 365.837 161.1C366.897 164.013 369.684 165.506 371.485 167.919Z" fill="#4C4981"/>
<path d="M116.418 149.114L137.377 228.863C137.634 229.84 138.174 230.713 138.926 231.366C139.677 232.019 140.604 232.421 141.583 232.518L235.92 241.849C236.688 241.925 237.464 241.811 238.181 241.515C238.898 241.219 239.536 240.751 240.041 240.149C240.546 239.548 240.904 238.83 241.084 238.057C241.264 237.284 241.262 236.477 241.077 235.705L218.125 139.51C217.852 138.367 217.194 137.36 216.268 136.669C215.342 135.978 214.208 135.647 213.068 135.736L120.708 142.848C119.999 142.905 119.311 143.122 118.693 143.484C118.075 143.846 117.542 144.344 117.132 144.942C116.722 145.541 116.446 146.225 116.322 146.946C116.199 147.667 116.231 148.408 116.418 149.114Z" fill="#9C9CA1"/>
<path d="M303.423 164.676C309.15 164.676 313.792 159.834 313.792 153.861C313.792 147.888 309.15 143.046 303.423 143.046C297.696 143.046 293.053 147.888 293.053 153.861C293.053 159.834 297.696 164.676 303.423 164.676Z" fill="white"/>
<path d="M311.938 134.132C311.938 134.132 314.124 140.824 307.675 143.638L306.85 145.122L310.89 149.226C310.89 149.226 315.87 139.871 315.33 136.549C315.33 136.549 314.559 133.176 311.938 134.132Z" fill="white"/>
<path d="M304.614 164.676C310.137 164.676 314.614 160.067 314.614 154.381C314.614 148.695 310.137 144.086 304.614 144.086C299.091 144.086 294.614 148.695 294.614 154.381C294.614 160.067 299.091 164.676 304.614 164.676Z" fill="#41729F"/>
<path d="M315.38 138.069L313.792 135.371L311.479 135.033C311.973 126.147 309.733 123.5 309.733 123.5L309.213 123.449L306.946 123.222L302.683 118.666V117.372C308.673 118.107 311.984 121.035 313.773 124.468C316.934 130.493 315.38 138.069 315.38 138.069Z" fill="#41729F"/>
<path opacity="0.1" d="M309.232 121.813V123.449L306.965 123.222L302.702 118.666C302.702 118.666 309.297 120.186 309.232 121.813Z" fill="black" stroke="#4C4981" stroke-miterlimit="10"/>
<path opacity="0.1" d="M315.381 138.07L313.792 135.371V124.484C316.934 130.493 315.381 138.07 315.381 138.07Z" fill="black" stroke="#4C4981" stroke-miterlimit="10"/>
<path d="M286.136 158.613C288.796 157.032 288.682 151.699 285.88 146.703C283.078 141.707 278.65 138.939 275.99 140.52C273.329 142.102 273.444 147.434 276.246 152.43C279.047 157.426 283.475 160.194 286.136 158.613Z" fill="white"/>
<path d="M282.564 148.694C285.366 153.691 288.805 157.028 286.145 158.616C283.485 160.203 275.737 159.41 272.934 154.409C270.132 149.408 272.676 142.503 275.336 140.915C277.996 139.328 279.758 143.685 282.564 148.694Z" fill="#41729F"/>
<path opacity="0.1" d="M307.516 112.697C307.516 128.664 296.904 144.051 281.396 144.051C273.948 144.051 266.805 141.004 261.538 135.582C256.272 130.16 253.313 122.806 253.313 115.138C253.313 107.47 256.272 100.116 261.538 94.6938C266.805 89.2717 273.948 86.2256 281.396 86.2256C296.904 86.2415 307.516 96.7269 307.516 112.697Z" fill="black"/>
<path d="M281.396 143.272C296.905 143.272 309.479 130.328 309.479 114.36C309.479 98.3921 296.905 85.4475 281.396 85.4475C265.886 85.4475 253.313 98.3921 253.313 114.36C253.313 130.328 265.886 143.272 281.396 143.272Z" fill="#FFB8B8"/>
<path d="M278.929 101.549C282.271 102.815 284.248 106.371 287.247 108.351C291.488 111.129 297.008 110.411 301.85 109.038C304.548 108.28 307.37 107.355 310.026 108.196C310.417 108.375 310.848 108.438 311.271 108.379C311.849 108.208 312.135 107.55 312.324 106.962C315.608 96.8815 314.132 85.4634 309.174 76.1368C307.894 73.7317 306.36 71.406 304.248 69.7351C302.582 68.4215 300.624 67.5602 298.65 66.826C295.043 65.4923 291.313 64.5441 287.517 63.9963C286.847 63.8709 286.162 63.8482 285.486 63.9288C284.557 64.0836 283.724 64.5995 282.895 65.0599C279.346 67.0189 275.409 68.1197 271.385 68.2786C265.988 68.4889 259.82 67.1792 255.66 70.7432C250.649 75.0176 251.898 83.3559 248.648 89.1583C246.497 92.9961 242.349 95.7822 241.667 100.152C241.489 101.487 241.572 102.846 241.91 104.148C243.498 110.871 249.82 116.078 256.559 116.201C257.593 116.283 258.63 116.064 259.55 115.57C260.153 115.147 260.685 114.625 261.127 114.027C265.541 108.645 270.59 98.3896 278.929 101.549Z" fill="#444053"/>
<path opacity="0.1" d="M312.324 104.037C312.135 104.625 311.849 105.283 311.271 105.454C310.848 105.513 310.417 105.45 310.026 105.271C307.37 104.43 304.533 105.355 301.854 106.113C297.008 107.486 291.476 108.22 287.251 105.426C284.248 103.442 282.275 99.87 278.929 98.6238C270.59 95.4488 265.541 105.72 261.115 111.102C260.674 111.7 260.141 112.222 259.538 112.645C258.618 113.139 257.582 113.358 256.547 113.277C249.832 113.153 243.506 107.946 241.898 101.223C241.81 100.826 241.733 100.43 241.675 100.033C241.675 100.068 241.675 100.1 241.656 100.136C241.478 101.471 241.56 102.83 241.898 104.132C243.487 110.856 249.813 116.063 256.547 116.186C257.582 116.267 258.618 116.048 259.538 115.555C260.141 115.131 260.674 114.61 261.115 114.011C265.541 108.629 270.59 98.3738 278.929 101.533C282.275 102.799 284.248 106.355 287.251 108.335C291.492 111.114 297.008 110.395 301.854 109.022C304.552 108.264 307.37 107.339 310.026 108.181C310.417 108.359 310.848 108.422 311.271 108.363C311.849 108.193 312.135 107.534 312.324 106.946C313.648 102.822 314.233 98.4833 314.051 94.1431C313.937 97.5091 313.355 100.841 312.324 104.037Z" fill="black"/>
</g>
<defs>
<clipPath id="clip0">
<rect width="441" height="245" fill="white"/>
</clipPath>
</defs>
</svg>
